<svg xmlns="http://www.w3.org/2000/svg" viewBox="0 0 398 312" width="398" height="312">
  <!-- Le logomark Solana : trois barres obliques, degrade violet -> vert. Dessine a la main
       d'apres les proportions officielles (398 x 312), pour marquer la chaine la ou l'on
       parle d'argent : la porte, le portefeuille, la barre, le guide de depot. -->
  <defs>
    <linearGradient id="sol-g" x1="360.9" y1="-37.5" x2="141.2" y2="383.3" gradientUnits="userSpaceOnUse">
      <stop offset="0" stop-color="#14F195"/>
      <stop offset="1" stop-color="#9945FF"/>
    </linearGradient>
  </defs>
  <path fill="url(#sol-g)" d="M64.6 237.9c2.4-2.4 5.7-3.8 9.2-3.8h317.4c5.8 0 8.7 7 4.6 11.1l-62.7 62.7c-2.4 2.4-5.7 3.8-9.2 3.8H6.5c-5.8 0-8.7-7-4.6-11.1l62.7-62.7z"/>
  <path fill="url(#sol-g)" d="M64.6 3.8C67.1 1.4 70.4 0 73.8 0h317.4c5.8 0 8.7 7 4.6 11.1l-62.7 62.7c-2.4 2.4-5.7 3.8-9.2 3.8H6.5c-5.8 0-8.7-7-4.6-11.1L64.6 3.8z"/>
  <path fill="url(#sol-g)" d="M333.1 120.1c-2.4-2.4-5.7-3.8-9.2-3.8H6.5c-5.8 0-8.7 7-4.6 11.1l62.7 62.7c2.4 2.4 5.7 3.8 9.2 3.8h317.4c5.8 0 8.7-7 4.6-11.1l-62.7-62.7z"/>
</svg>
